<svg xmlns="http://www.w3.org/2000/svg" viewBox="0 0 189.66 222.5"><polygon points="107.03 222.5 135.22 212.47 130.25 198.34 144.16 193.41 139.09 179.19 153.25 174.22 148.28 159.88 162.41 154.97 157.31 140.63 171.56 135.75 166.34 121.69 180.53 116.66 175.44 102.53 189.66 97.56 184.72 83.66 142.69 98.72 147.81 112.63 133.81 117.75 138.69 131.91 124.66 136.91 129.66 151.03 115.44 156.16 120.59 170.19 106.38 175.38 111.34 189.44 97.22 194.66 107.03 222.5" fill="#fff"/><polygon points="99.34 114.16 120.47 74.81 107.06 67.59 121.44 41.31 107.97 34.13 115.28 21.13 75.91 0 54.72 39.59 41.44 32.34 34.41 45.59 21.28 38.47 0 77.88 13.19 84.91 6.09 98.06 18.97 105.06 26.25 91.88 39.34 99 53.59 72.44 66.75 79.53 73.81 66.34 87.44 73.72 80.31 86.78 93.56 93.99 86.47 107.13 99.34 114.16" fill="#fff"/></svg>