<svg viewBox="0 0 56 58" xmlns="http://www.w3.org/2000/svg"><path d="M0 38v-2h19v2h33v9h-1v1h-1v1h-3v2h-1v1h-1v1h-1v1h-6v2h-1v1h-1v1H20v-1h-1v-1h-1v-2h-7v-1h-1v-1H9v-1H8v-2H6v-1H5v-1H4v-7H2v-1H1v-1H0Z" fill="#012647"/><path d="M9 4h37v41H9V4ZM5 35h4v1H5v-1Z" fill="#278EED"/><path d="M10 8h27v28H10V8Zm27 10h5v14h-5V18Zm-9 18h5v5h-5v-5Z" fill="#3DA2FF"/><path d="M33 36h4v5h-4v-5Zm4-4h5v4h-5v-4Z" fill="#2E95F4"/><path d="M18 8h10v14H18V8Zm0 14h5v5h-5v-5Z" fill="#57AAFF"/><path d="M33 8h4v10h-4V8Zm0 14h4v10h-4V22Zm-5 5h5v9h-5v-9Zm-9 5h9v6h-9v-6Z" fill="#4BA8FF"/><path d="M9 41h5v4H9v-4Zm10 7h4v2h-4v-2Zm27-16h2v4h-2v-4Zm0-14h3v9h-3v-9Zm-4 18h4v9h-4v-9Zm-5 5h5v4h-5v-4Z" fill="#0D74D3"/><path d="M9 45h10v5H9v-5Zm10 5h18v5H19v-5Zm18-5h9v5h-9v-5Zm9-9h5v9h-5v-9Z" fill="#014E96"/><path d="M19 0h18v4H19V0ZM0 18h5v18H0V18Zm5 18h4v9H5v-9Z" fill="#0157A9"/><path d="M42 18h4v4h-4v-4Z" fill="#3198F7"/><path d="M51 38v-2h5v2h-1v1h-1v1h-2v-2h-1Z" fill="#132E2F"/><path d="M19 38h9v3h-9v-3Zm4-24h1v2h-1v-2Zm1-6h3v2h-3V8Zm0 10v-2h1v1h1v1h-2Zm-10-5V8h8v2h-1v1h1v2h-8Zm0 9v-9H9v9H5v13h4v1h5v-2h-2v-1h-2v-3h1v-1h3v1h1v1h1v-4h2v-5h-4Z" fill="#6EC310"/><path d="M19 45v-4h15v4H19ZM5 22v-4h4v4H5Zm4-9V8h5v5H9Zm10-5V4h9v2h-1v2h-3V7h-2v1h-3Z" fill="#57B10F"/><path d="M9 37v-1h5v1h2v2h1v1h2v1h-3v-1h-1v-1h-3v-2H9Z" fill="#58AE01"/><path d="M39 11V8h7v9h-1v-4h-3v-2h-3Zm10 7h2v18h-3v-4h-2v-5h3v-9ZM37 50v-5H19v3h4v2h14Z" fill="#448001"/><path d="M9 8V4h10v4H9v10H5V8h4Zm28 0V4h9v4h5v10h5v18h-5V18h-5V8h-9ZM26 51v-1h8v1h-1v3h-1v1h-3v-2h-2v-2h-1Zm25-13v-2h-2v1h1v1h1Z" fill="#2A5401"/><path d="M14 22v-9h9v9h-9Z" fill="#fff"/></svg>