<svg xmlns="http://www.w3.org/2000/svg" viewBox="0 0 194.73 164.79"><title>blog</title><path d="M54.57,17.52H194.73a0,0,0,0,1,0,0v89.9a8,8,0,0,1-8,8H62.57a8,8,0,0,1-8-8V17.52A0,0,0,0,1,54.57,17.52Z" fill="#fff"/><path d="M62.57,0H186.73a8,8,0,0,1,8,8V18.52a0,0,0,0,1,0,0H54.57a0,0,0,0,1,0,0V8A8,8,0,0,1,62.57,0Z"/><rect x="57.51" y="21.41" width="54.25" height="11.65"/><rect x="58.51" y="38.24" width="132.58" height="2.31"/><rect x="58.51" y="43.24" width="132.58" height="2.31"/><rect x="58.51" y="48.24" width="132.58" height="2.31"/><rect x="58.51" y="53.24" width="132.58" height="2.31"/><rect x="58.51" y="58.24" width="132.58" height="2.31"/><rect x="58.51" y="63.24" width="33.75" height="2.31"/><rect x="58.51" y="74.24" width="132.58" height="2.31"/><rect x="58.51" y="79.24" width="132.58" height="2.31"/><rect x="58.51" y="84.24" width="132.58" height="2.31"/><rect x="58.51" y="89.24" width="132.58" height="2.31"/><rect x="58.51" y="94.24" width="132.58" height="2.31"/><rect x="58.51" y="99.24" width="33.75" height="2.31"/><path d="M7243.34,7276.7l-48.82,1.57-6.6.21-82.18,2.64-2.83-88.32,137.59-4.42Z" transform="translate(-7101.36 -7117.88)" fill="#24e0ff" stroke="#fff" stroke-miterlimit="10" stroke-width="3"/><path d="M7183.89,7259.92c2.67-8.74,6.56-18.55,9.76-24.12,7.78-13.56,22.52-21.24,30.69-24.76a45.92,45.92,0,0,1,1,14.08c-1.58,18.6-14.23,29.85-15.72,31.14a46.55,46.55,0,0,1-27.77,11C7182.3,7265.48,7183,7262.94,7183.89,7259.92Z" transform="translate(-7101.36 -7117.88)" fill="#f8ff5f"/><path d="M7185.44,7260.55c4.73-7.81,10.9-16.38,15.36-21,10.86-11.25,27-15.09,35.82-16.49a45.81,45.81,0,0,1-2.48,13.89c-6.08,17.65-21.09,25.46-22.86,26.34a46.53,46.53,0,0,1-29.61,3.88C7182.53,7265.56,7183.81,7263.26,7185.44,7260.55Z" transform="translate(-7101.36 -7117.88)" fill="#dbdd47"/><path d="M7190.82,7259.19c-4.74-7.81-10.92-16.36-15.39-21-10.88-11.22-27.06-15-35.85-16.43a45.94,45.94,0,0,0,2.5,13.9c6.12,17.63,21.14,25.41,22.91,26.29a46.57,46.57,0,0,0,29.62,3.83C7193.74,7264.2,7192.46,7261.9,7190.82,7259.19Z" transform="translate(-7101.36 -7117.88)" fill="#f8dc5f"/><path d="M7189.48,7260.19c-6.51-6.41-14.6-13.19-20.06-16.56-13.3-8.22-29.92-8-38.78-7.16a46.07,46.07,0,0,0,5.83,12.86c10.24,15.6,26.71,19.47,28.64,19.89a46.58,46.58,0,0,0,29.66-3.54C7193.53,7264.33,7191.73,7262.41,7189.48,7260.19Z" transform="translate(-7101.36 -7117.88)" fill="#dbb947"/><path d="M7184.65,7266l2.32,6.69" transform="translate(-7101.36 -7117.88)" fill="#dbb947"/><path d="M7199.82,7261.79" transform="translate(-7101.36 -7117.88)" fill="#24e0ff"/><path d="M7195.14,7276.72a19.51,19.51,0,0,1-.66-4.62c-.11-4.25,1.36-6.29-.23-7.06-1.1-.54-3.47-.38-8.87,2.29.85,3.69,1.47,6.87,1.92,9.64Z" transform="translate(-7101.36 -7117.88)" fill="#16bb5f"/></svg>