<svg xmlns="http://www.w3.org/2000/svg" viewBox="0 0 141.4 137"><title>under-con</title><circle cx="89.3" cy="52.1" r="51.1" fill="#322d46" stroke="#fff" stroke-miterlimit="10" stroke-width="2"/><path d="M7232.9,7206l1.2,6.2a3.6,3.6,0,0,0,2.2,2.7l5.3,1.9a3.5,3.5,0,0,0,3.4-.6l4.3-3.6a3.7,3.7,0,0,0,1.2-3.3l-1-5.5a3.4,3.4,0,0,0-2.2-2.6l-5.3-1.9-.8-.2-28.8-32a3.9,3.9,0,0,0,.5-2.8l-1.7-9.6a3.9,3.9,0,0,0-2.6-3.1l-9.2-3.3a3.9,3.9,0,0,0-4,.7l-.4.3,7.1,4.4-2,8.4-8.7.7-3.2-7.8-.3.3a4.2,4.2,0,0,0-1.4,3.8l1.8,9.6a3.9,3.9,0,0,0,2.6,3.1l9.2,3.4a3.9,3.9,0,0,0,3.9-.7l.2-.2,28.9,32.2m12.2,2-1,2.1a1.2,1.2,0,0,1-1,.6l-2.2.3a1.3,1.3,0,0,1-1.1-.5l-1.4-1.9a1.7,1.7,0,0,1-.1-1.2l1-2.1a1.4,1.4,0,0,1,1-.7l2.3-.2a1.6,1.6,0,0,1,1.1.5l1.3,1.9A1.3,1.3,0,0,1,7245.3,7208.5Z" transform="translate(-7128.8 -7131)" fill="#909090" stroke="#fff" stroke-miterlimit="10" stroke-width="2"/><path d="M7138.6,7220.2l-6,40.4a5.5,5.5,0,0,0,10.9,1.7l6.2-41.4a1.7,1.7,0,0,0,.1-.7Z" transform="translate(-7128.8 -7131)" fill="#909090" stroke="#fff" stroke-miterlimit="10" stroke-width="2"/><path d="M7222.8,7220.2h-11.2c0,.2.1.5.1.7l6.2,41.4a5.6,5.6,0,0,0,11-1.7Z" transform="translate(-7128.8 -7131)" fill="#909090" stroke="#fff" stroke-miterlimit="10" stroke-width="2"/><rect x="1" y="70.3" width="101.8" height="18.9" rx="5" ry="5" fill="#fff500" stroke="#fff" stroke-miterlimit="10" stroke-width="2"/><polygon points="57.5 88.2 84.4 88.2 95.3 71.4 68.4 71.4 57.5 88.2"/><polygon points="8.7 88.2 35.6 88.2 46.5 71.4 19.6 71.4 8.7 88.2"/></svg>